<?xml version="1.0" encoding="UTF-8"?>
<svg width="15px" height="23px" viewBox="0 0 15 23" version="1.1" xmlns="http://www.w3.org/2000/svg" xmlns:xlink="http://www.w3.org/1999/xlink">
    <title>68344A8C-0684-4A53-B94F-06866B8B6D8D</title>
    <g id="Page-1" stroke="none" stroke-width="1" fill="none" fill-rule="evenodd" stroke-linecap="round" stroke-linejoin="round">
        <g id="hops-and-vines-homepage" transform="translate(-695.000000, -380.000000)" stroke="#FFFFFF">
            <g id="hero-text" transform="translate(370.000000, 323.000000)">
                <g id="icon/beers" transform="translate(325.000000, 57.000000)">
                    <path d="M0.5,8.5 C0.5,8.5 0.5,8.5 0.5,10.5 C0.5,14.5 2.5,18.5 2.5,22.5 C2.9,22.5 12.1,22.5 12.5,22.5 C12.5,18.5 14.5,14.5 14.5,10.5 C14.5,8.5 14.5,8.5 14.5,8.5" id="Path"></path>
                    <path d="M14.5,6.5 C14.5,5.2 13.6,4 12.4,3.7 C12,1.9 10.4,0.5 8.5,0.5 C6.6,0.5 4.9,1.9 4.6,3.7 C4,3.5 3.3,3.4 2.6,3.6 C1.3,4 0.5,5.3 0.5,6.7 L0.5,8.5 L4.5,8.5 L4.5,12.5 C4.5,13.6 5.4,14.5 6.5,14.5 L6.5,14.5 C7.6,14.5 8.5,13.6 8.5,12.5 L8.5,8.5 L14.5,8.5 C14.5,8.2 14.5,6.9 14.5,6.5 Z" id="Path"></path>
                </g>
            </g>
        </g>
    </g>
</svg>