<?xml version="1.0" encoding="UTF-8"?>
<svg width="30px" height="30px" viewBox="0 0 30 30" version="1.1" xmlns="http://www.w3.org/2000/svg" xmlns:xlink="http://www.w3.org/1999/xlink">
    <title>B40A1808-F75E-4964-A051-8D9601719CC5</title>
    <g id="Page-1" stroke="none" stroke-width="1" fill="none" fill-rule="evenodd">
        <g id="hops-and-vines-homepage" transform="translate(-1229.000000, -106.000000)" fill="#c1d72d" fill-rule="nonzero">
            <g id="facebook-logo-icon" transform="translate(1229.000000, 106.000000)">
                <path d="M28.6875,0 L1.3125,0 C0.5625,0 0,0.5625 0,1.3125 L0,28.875 C0,29.4375 0.5625,30 1.3125,30 L15,30 L15,20.625 L11.25,20.625 L11.25,15 L15,15 L15,11.25 C15,7.3125 17.25,5.625 20.625,5.625 C22.3125,5.625 24,5.625 24.375,5.625 L24.375,11.25 L22.5,11.25 C21.375,11.25 20.625,12 20.625,13.125 L20.625,15 L25.5,15 L24.375,20.625 L20.625,20.625 L20.625,30 L28.6875,30 C29.4375,30 30,29.4375 30,28.6875 L30,1.3125 C30,0.5625 29.4375,0 28.6875,0 Z" id="Path"></path>
            </g>
        </g>
    </g>
</svg>