<?xml version="1.0" encoding="UTF-8"?>
<svg width="233px" height="100px" viewBox="0 0 233 100" version="1.1" xmlns="http://www.w3.org/2000/svg" xmlns:xlink="http://www.w3.org/1999/xlink">
    <title>422232B0-51A3-4AA7-8A7A-00C17CADBA94</title>
    <defs>
        <polygon id="path-1" points="0 0.00729323308 111.055338 0.00729323308 111.055338 45.4757143 0 45.4757143"></polygon>
        <polygon id="path-3" points="0.592556391 0.318345865 36.4022556 0.318345865 36.4022556 46.6165414 0.592556391 46.6165414"></polygon>
    </defs>
    <g id="Page-1" stroke="none" stroke-width="1" fill="none" fill-rule="evenodd">
        <g id="hops-and-vines-homepage" transform="translate(-604.000000, -64.000000)">
            <g id="hops-and-vines-logo" transform="translate(604.000000, 64.000000)">
                <g id="Group-3" transform="translate(0.000000, 53.380451)">
                    <mask id="mask-2" fill="white">
                        <use xlink:href="#path-1"></use>
                    </mask>
                    <g id="Clip-2"></g>
                    <path d="M111.055338,0.101278195 L99.1162406,0.101278195 L89.932782,31.8757143 L89.8094737,31.8757143 L80.6869173,0.101278195 L76.2944361,0.101278195 L76.2876692,0.0877443609 L69.3177444,0.00729323308 C60.9996992,0.475714286 53.0959398,3.41631579 46.8936842,9.58022556 C44.9177444,11.3749624 44.0087218,12.1493985 43.1756391,12.6065414 C42.3944361,13.1253383 41.5658647,13.1403759 40.6869173,13.1681955 L10.8899248,13.977218 C9.39067669,13.9493985 9.08015038,13.8764662 8.83203008,13.7441353 C8.3606015,13.5020301 7.92300752,13.4606767 6.01699248,13.508797 C4.63804511,13.5433835 3.66962406,13.6411278 3.53654135,13.7599248 C3.41172932,13.8629323 2.86135338,13.9817293 2.3087218,14.0080451 C1.20947368,14.077218 0.600451128,14.2591729 0.350075188,14.6065414 C-0.0454135338,19.4080451 -0.122857143,24.2591729 0.204210526,29.0681955 C0.450075188,29.4223308 1.05383459,29.6185714 2.14932331,29.7095489 C2.70345865,29.7546617 3.25308271,29.8802256 3.37338346,29.9884962 C3.50496241,30.1072932 4.46887218,30.2260902 5.84631579,30.2997744 C7.75383459,30.3877444 8.19142857,30.3591729 8.66736842,30.1230827 C8.91548872,30.0035338 9.22827068,29.9351128 10.7290226,29.9471429 L40.2816541,31.4268421 C41.4237594,31.3621805 42.3658647,31.6584211 43.3418045,32.2824812 C44.0801504,32.7794737 44.9741353,33.5884962 46.6365414,35.171203 C52.7124812,41.4696992 60.5560902,44.5945113 68.8606015,45.2539098 L88.682406,45.4757143 C88.6793985,45.452406 88.676391,45.4306015 88.6741353,45.4080451 L95.8711278,45.4080451 L111.055338,0.101278195 Z" id="Fill-1" fill="#FEFEFE" mask="url(#mask-2)"></path>
                </g>
                <path d="M112.376992,98.9740602 L112.376992,59.5823308 C112.376992,58.3033835 112.823609,57.2169173 113.719098,56.3206767 C114.615338,55.4259398 115.701805,54.9778195 116.980752,54.9778195 L121.457444,54.9778195 L121.457444,98.9740602 L112.376992,98.9740602 Z" id="Fill-4" fill="#FEFEFE"></path>
                <path d="M124.460301,98.9740602 L124.460301,59.5823308 C124.460301,58.3033835 124.908421,57.2169173 125.802406,56.3206767 C126.698647,55.4259398 127.785113,54.9364662 129.06406,54.85 L133.923459,54.85 L151.828722,85.1612782 L151.828722,54.85 L160.782857,54.85 L160.782857,98.9740602 L151.446015,98.9740602 L133.41218,68.6635338 L133.41218,98.9740602 L124.460301,98.9740602 Z" id="Fill-6" fill="#FEFEFE"></path>
                <path d="M162.572707,98.9740602 L162.572707,59.5823308 C162.572707,58.3033835 163.020827,57.2169173 163.914812,56.3206767 C164.811053,55.4259398 165.897519,54.9778195 167.176466,54.9778195 L194.546391,54.9778195 L194.546391,62.5236842 L171.524586,62.5236842 L171.524586,71.9883459 L188.66218,71.9883459 L188.66218,74.9296992 C188.66218,76.2093985 188.215564,77.2958647 187.320075,78.1906015 C186.424586,79.0868421 185.337368,79.5342105 184.058421,79.5342105 L171.524586,79.5342105 L171.524586,90.7883459 L194.546391,90.7883459 L194.546391,98.9740602 L162.572707,98.9740602 Z" id="Fill-8" fill="#FEFEFE"></path>
                <g id="Group-12" transform="translate(195.488722, 53.380451)">
                    <mask id="mask-4" fill="white">
                        <use xlink:href="#path-3"></use>
                    </mask>
                    <g id="Clip-11"></g>
                    <path d="M0.592556391,31.9085714 L9.54443609,31.9085714 C9.88353383,34.4664662 10.8662406,36.2574436 12.4857895,37.2807519 C14.1910526,38.4754887 16.5346617,39.0709774 19.5203759,39.0709774 C22.1617293,39.0709774 24.1669925,38.6033083 25.532406,37.6642105 C26.894812,36.7266165 27.5782707,35.3619549 27.5782707,33.5717293 C27.5782707,30.8439098 23.7406767,28.6281203 16.0677444,26.9206015 L15.8121053,26.792782 L14.788797,26.5371429 C10.4406767,25.5995489 7.53992481,24.6190977 6.09180451,23.5957895 C4.38578947,22.6581955 3.19180451,21.2935338 2.5106015,19.5033083 C1.65721805,17.9687218 1.23165414,16.0085714 1.23165414,13.6198496 C1.23165414,9.44315789 2.68052632,6.16045113 5.57977444,3.77172932 C8.47676692,1.47022556 12.6978195,0.318345865 18.2414286,0.318345865 C23.4414286,0.318345865 27.4504511,1.51383459 30.263985,3.89954887 C33.1609774,6.54390977 34.6955639,9.99654135 34.8677444,14.2589474 L29.7527068,14.2589474 C27.7895489,14.2589474 26.382782,13.3642105 25.532406,11.5732331 C25.1038346,10.7221053 24.5090977,9.99654135 23.7406767,9.39954887 C22.2060902,8.29278195 20.1166165,7.73714286 17.4745113,7.73714286 C14.9166165,7.73714286 13.0820301,8.20706767 11.9752632,9.14390977 C10.6963158,10.0830075 10.0557143,11.4040602 10.0557143,13.1085714 C10.0557143,15.4108271 12.5286466,17.1168421 17.4745113,18.2243609 C18.9226316,18.6514286 19.988797,18.9078195 20.6715038,18.9912782 C22.2060902,19.5033083 23.5496992,19.9085714 24.7000752,20.2070677 C25.851203,20.5063158 26.7677444,20.7401504 27.4504511,20.9100752 C28.6429323,21.4221053 29.8369173,21.9326316 31.0301504,22.4446617 C32.7354135,23.467218 34.057218,24.7905263 34.9955639,26.4100752 C35.932406,28.1995489 36.4023308,30.1627068 36.4023308,32.292782 C36.4023308,36.8972932 34.8677444,40.4777444 31.7985714,43.0356391 C28.7293985,45.4243609 24.3812782,46.6168421 18.7534586,46.6168421 C12.9542105,46.6168421 8.60609023,45.3822556 5.70759398,42.9078195 C2.55270677,40.436391 0.848195489,36.7687218 0.592556391,31.9085714" id="Fill-10" fill="#FEFEFE" mask="url(#mask-4)"></path>
                </g>
                <path d="M67.9203008,41.3473684 L67.1646617,42.112782 L66.4270677,41.3345865 C66.1526316,41.0458647 65.7796992,40.6413534 65.3593985,40.1646617 C64.6977444,41.0511278 64.0699248,41.8330827 63.5533835,42.4541353 C65.0203008,44.4263158 66.4714286,46.012782 67.124812,46.7022556 C67.8007519,46.0180451 69.3120301,44.4210526 70.8330827,42.4368421 C70.3240602,41.8157895 69.706015,41.0360902 69.0503759,40.1511278 C68.6007519,40.6413534 68.2075188,41.0533835 67.9203008,41.3473684" id="Fill-13" fill="#C1D72D"></path>
                <path d="M73.8626316,36.3800752 L73.1272932,37.1537594 L72.372406,36.3958647 C72.3370677,36.3590226 72.2881955,36.306391 72.2490977,36.2657895 C71.3987218,37.4281955 70.5295489,38.4868421 69.7596241,39.3612782 C70.8896992,40.9018797 71.9167669,42.125188 72.4280451,42.712406 C73.1739098,42.0342105 74.8987218,40.3951128 76.5769173,38.3507519 C75.9889474,37.6530075 75.2573684,36.7424812 74.4836842,35.706391 C74.2506015,35.9657895 74.034812,36.1973684 73.8626316,36.3800752" id="Fill-15" fill="#C1D72D"></path>
                <path d="M56.2903759,38.5630827 C56.8512782,37.9194737 58.0482707,36.5104511 59.3287218,34.742782 C58.6866165,33.9984211 57.9512782,33.0916541 57.2129323,32.0886466 C56.9332331,32.511203 56.6881203,32.8721053 56.4971429,33.148797 L55.8993985,34.0104511 L55.0437594,33.4014286 C53.7520301,32.4826316 50.6933835,30.1623308 48.2971429,27.3254887 C49.2745865,31.9848872 54.7813534,37.2096992 56.2903759,38.5630827" id="Fill-17" fill="#C1D72D"></path>
                <path d="M67.9717293,35.4996992 L67.2190977,36.2628571 L66.4822556,35.4861654 C66.0754887,35.0621053 65.4732331,34.4049624 64.7784962,33.5914286 C64.1266165,34.3560902 63.5206015,35.02 63.0190977,35.5508271 C64.6709774,37.8974436 66.4386466,39.8372932 67.1807519,40.6184962 C67.9491729,39.838797 69.7980451,37.882406 71.5206015,35.5087218 C71.0168421,34.9741353 70.4160902,34.3079699 69.773985,33.5545865 C69.0401504,34.3921805 68.3950376,35.0688722 67.9717293,35.4996992" id="Fill-19" fill="#C1D72D"></path>
                <path d="M62.2474436,36.3455639 L61.4955639,37.1049624 L60.7579699,36.326015 C60.5609774,36.1230075 60.3113534,35.8493233 60.0309023,35.5403008 C59.2203759,36.6508271 58.4429323,37.6237594 57.8293985,38.357594 C59.494812,40.4049624 61.2068421,42.0515789 61.9489474,42.7320301 C62.4662406,42.1440602 63.5113534,40.9147368 64.6609774,39.3598496 C63.926391,38.4944361 63.0933083,37.4523308 62.2835338,36.3087218 C62.2730075,36.3222556 62.2587218,36.3342857 62.2474436,36.3455639" id="Fill-21" fill="#C1D72D"></path>
                <path d="M61.6718045,29.4964662 C61.6206767,29.5573684 61.5635338,29.622782 61.5184211,29.6761654 L60.8161654,30.4836842 L60.0274436,29.7596241 C59.7988722,29.5430827 59.4860902,29.247594 59.143985,28.9145113 C58.6830827,29.7340602 58.2281955,30.4896992 57.8146617,31.1498496 C59.3109023,33.2235338 60.8364662,34.9024812 61.5109023,35.6152632 C62.0191729,35.1062406 62.9966165,34.0889474 64.106391,32.7821805 C63.3184211,31.8197744 62.4718045,30.7032331 61.6718045,29.4964662" id="Fill-23" fill="#C1D72D"></path>
                <path d="M74.6189474,29.8709023 L73.8257143,30.5874436 L73.1332331,29.7731579 C73.0723308,29.7024812 73.0009023,29.6145113 72.9302256,29.5318045 C72.1181955,30.7130075 71.258797,31.8115038 70.4618045,32.7596241 C71.5918797,34.0987218 72.5941353,35.1468421 73.1106767,35.6656391 C73.7790977,34.9633835 75.2768421,33.3152632 76.7603008,31.2761654 C76.3572932,30.6295489 75.9129323,29.885188 75.4633083,29.0821805 C75.14,29.3927068 74.8437594,29.6671429 74.6189474,29.8709023" id="Fill-25" fill="#C1D72D"></path>
                <path d="M46.0981955,20.7778947 C46.1109774,20.8876692 46.1245113,20.9929323 46.1395489,21.0929323 C46.8087218,25.976391 53.8493233,31.276391 55.6455639,32.5568421 C56.1553383,31.8237594 57.2560902,30.1786466 58.3809023,28.1530827 C55.6989474,25.4147368 51.5154887,20.4914286 51.3365414,16.2485714 L51.3245113,15.9169925 C51.2733835,13.701203 51.6109774,11.7921805 52.2861654,10.2124812 C46.0335338,11.757594 45.7124812,17.4651128 46.0981955,20.7778947" id="Fill-27" fill="#C1D72D"></path>
                <path d="M79.5252632,33.5363158 L78.6666165,34.1438346 L78.0696241,33.2799248 C77.8801504,33.0017293 77.6357895,32.6415789 77.3606015,32.2182707 C76.5966917,33.2460902 75.8380451,34.1656391 75.1914286,34.9137594 C76.4305263,36.5979699 77.5778947,37.9363158 78.1275188,38.5573684 C79.5606015,37.2566165 84.6463158,32.3994737 85.9252632,27.9024812 C83.5839098,30.5393233 80.7508271,32.666391 79.5252632,33.5363158" id="Fill-29" fill="#C1D72D"></path>
                <path d="M67.2330075,34.7721053 C68.1029323,33.8878947 70.3608271,31.4946617 72.2457895,28.6961654 C71.73,28.054812 71.1149624,27.2533083 70.473609,26.3472932 C69.448797,27.3706015 68.5465414,28.1886466 67.9751128,28.686391 L67.2818797,29.2946617 L66.5991729,28.6773684 C66.042782,28.1721053 65.1683459,27.3510526 64.173609,26.3232331 C63.5157143,27.2322556 62.8856391,28.0322556 62.3683459,28.667594 C64.1931579,31.4721053 66.3841353,33.8796241 67.2330075,34.7721053" id="Fill-31" fill="#C1D72D"></path>
                <path d="M83.4535338,16.0969925 L83.44,16.4338346 C83.2196992,20.7067669 78.94,25.6300752 76.2324812,28.3323308 C77.3384962,30.3353383 78.421203,31.962406 78.9234586,32.6887218 C80.7249624,31.4150376 87.7813534,26.1323308 88.4655639,21.2601504 L88.5046617,20.9398496 C88.9009023,17.6661654 88.6039098,12.0473684 82.552782,10.4105263 C83.2091729,11.9887218 83.5257143,13.8909774 83.4535338,16.0969925" id="Fill-33" fill="#C1D72D"></path>
                <path d="M77.5552632,14.2150376 L77.5552632,14.5473684 C77.5206767,18.2406015 74.0906015,22.5917293 71.2109023,25.5947368 C72.3522556,27.2090226 73.4041353,28.4909774 73.9244361,29.1015038 C75.5966165,27.587218 82.1462406,21.3541353 82.4041353,16.387218 L82.4184211,16.0654135 C82.5266917,12.6533835 81.7206767,6.84586466 75.0770677,6.31428571 C74.8462406,6.29699248 74.6379699,6.30150376 74.4221805,6.29849624 C76.4093985,8.04511278 77.5078947,10.7278195 77.5552632,14.2150376" id="Fill-35" fill="#C1D72D"></path>
                <path d="M52.3613534,15.8825564 L52.3718797,16.203609 C52.5831579,21.1757895 59.076391,27.4697744 60.7357895,28.9960902 C61.2523308,28.397594 62.3057143,27.1427068 63.444812,25.5569925 C60.6162406,22.5021053 57.2403008,18.0772932 57.2726316,14.3780451 L57.2801504,14.0442105 C57.3891729,10.5607519 58.5312782,7.9006015 60.5418045,6.18706767 C60.295188,6.18706767 60.0553383,6.17954887 59.7921805,6.19759398 C53.1470677,6.6675188 52.2831579,12.4675188 52.3613534,15.8825564" id="Fill-37" fill="#C1D72D"></path>
                <path d="M58.3110526,14.3890977 C58.2674436,19.4364662 65.6253383,26.3943609 67.2930075,27.906391 C68.9884962,26.4259398 76.4704511,19.5996241 76.5163158,14.55 L76.5163158,14.2281955 C76.4704511,10.8169173 75.2373684,5.08157895 67.4997744,5.01165414 C59.7606767,4.94473684 58.4253383,10.6545113 58.3170677,14.0665414 L58.3110526,14.3890977 Z" id="Fill-39" fill="#C1D72D"></path>
                <path d="M3.29646617,46.8924812 L3.29646617,6.09323308 C3.29646617,4.76917293 3.76037594,3.64360902 4.68744361,2.71654135 C5.61451128,1.7887218 6.74082707,1.32556391 8.06488722,1.32556391 L12.7009774,1.32556391 L12.7009774,18.2804511 L31.5115038,18.2804511 L31.5115038,1.32556391 L41.047594,1.32556391 L41.047594,46.8924812 L31.5115038,46.8924812 L31.5115038,26.6255639 L12.7009774,26.6255639 L12.7009774,46.8924812 L3.29646617,46.8924812 Z" id="Fill-41" fill="#FEFEFE"></path>
                <path d="M102.684812,22.3866165 L111.824662,22.3866165 C114.294586,22.3866165 116.063008,21.8565414 117.123158,20.7978947 C118.269023,19.827218 118.844211,18.1482707 118.844211,15.7633083 C118.844211,13.7332331 118.314135,12.0993985 117.253985,10.8633083 C116.017143,9.80315789 114.384812,9.27308271 112.353233,9.27308271 L102.684812,9.27308271 L102.684812,22.3866165 Z M102.684812,30.5993985 L102.684812,46.8926316 L93.278797,46.8926316 L93.278797,6.09338346 C93.278797,4.76857143 93.7427068,3.64300752 94.6697744,2.71669173 C95.597594,1.7881203 96.722406,1.32496241 98.047218,1.32496241 L113.545714,1.32496241 C118.402105,1.32496241 122.02391,2.56330827 124.408872,5.03473684 C126.878797,7.50766917 128.117143,11.1738346 128.117143,16.0279699 C128.117143,20.621203 126.924662,24.2422556 124.541203,26.8903759 C122.156241,29.3633083 118.71188,30.5993985 114.20812,30.5993985 L102.684812,30.5993985 Z" id="Fill-43" fill="#FEFEFE"></path>
                <path d="M132.177368,32.7190977 L141.451053,32.7190977 C141.803684,35.3679699 142.81797,37.2221053 144.496917,38.2822556 C146.261579,39.5206015 148.689398,40.136391 151.78188,40.136391 C154.51797,40.136391 156.594662,39.6529323 158.008195,38.6807519 C159.419474,37.7100752 160.127744,36.2957895 160.127744,34.4409023 C160.127744,31.6153383 156.15406,29.3198496 148.20594,27.5529323 L147.94203,27.4206015 L146.880376,27.1559398 C142.377368,26.1852632 139.374361,25.1679699 137.873609,24.1093233 C136.107444,23.1386466 134.870602,21.7243609 134.164586,19.8694737 C133.280376,18.2807519 132.839774,16.2506767 132.839774,13.7769925 C132.839774,9.45142857 134.34203,6.05067669 137.343534,3.57774436 C140.345038,1.19203008 144.715714,0.00030075188 150.458571,0.00030075188 C155.844286,0.00030075188 159.995414,1.23864662 162.910451,3.71007519 C165.910451,6.44766917 167.500677,10.0243609 167.678872,14.4393985 L162.380376,14.4393985 C160.346541,14.4393985 158.889398,13.5123308 158.008195,11.6574436 C157.565338,10.7747368 156.949549,10.0243609 156.15406,9.40481203 C154.563083,8.25969925 152.399173,7.6837594 149.663083,7.6837594 C147.013459,7.6837594 145.113459,8.17022556 143.968346,9.14090226 C142.64203,10.1138346 141.979624,11.4815038 141.979624,13.2469173 C141.979624,15.6311278 144.539023,17.398797 149.663083,18.5446617 C151.162331,18.9882707 152.266842,19.2529323 152.974361,19.3393985 C154.563083,19.8694737 155.955564,20.2905263 157.148045,20.598797 C158.339023,20.9093233 159.287895,21.1514286 159.995414,21.3273684 C161.232256,21.8566917 162.466842,22.3867669 163.703684,22.9168421 C165.46985,23.9762406 166.839023,25.3461654 167.811203,27.023609 C168.78188,28.8777444 169.267594,30.9100752 169.267594,33.1160902 C169.267594,37.8845113 167.678872,41.5942857 164.499173,44.2431579 C161.320226,46.7160902 156.816466,47.9529323 150.987895,47.9529323 C144.981128,47.9529323 140.477368,46.673985 137.477368,44.1108271 C134.208195,41.5499248 132.443534,37.7521805 132.177368,32.7190977" id="Fill-45" fill="#FEFEFE"></path>
                <path d="M204.32406,17.2203759 L205.516541,16.4256391 C206.487218,15.7203759 207.193233,14.9692481 207.635338,14.1745113 C208.165414,13.2918045 208.430075,12.3196241 208.430075,11.2594737 C208.430075,10.2008271 208.07594,9.3624812 207.371429,8.74293233 C206.75188,8.12639098 205.869173,7.81586466 204.721805,7.81586466 C203.573684,7.81586466 202.689474,8.12639098 202.072932,8.74293233 C201.364662,9.45120301 201.012782,10.288797 201.012782,11.2594737 C201.012782,11.613609 201.188722,12.2331579 201.542857,13.1143609 C201.629323,13.5579699 201.806767,13.9549624 202.072932,14.3068421 C202.336842,14.6609774 202.603008,15.0143609 202.867669,15.3662406 L204.32406,17.2203759 Z M201.940602,26.8903008 L199.555639,28.6121053 C198.495489,29.407594 197.78797,30.2023308 197.436842,30.9963158 C196.906767,31.9692481 196.642105,33.0293985 196.642105,34.1767669 C196.642105,35.8542105 197.259398,37.3121053 198.495489,38.5466917 C199.732331,39.7850376 201.231579,40.4015789 202.999248,40.4015789 C204.23609,40.4015789 205.516541,40.1369173 206.841353,39.6068421 C207.901504,39.1662406 209.004511,38.3715038 210.152632,37.2226316 L201.940602,26.8903008 Z M197.436842,21.3271429 L195.581955,18.9429323 C194.609774,17.7970677 193.947368,16.6474436 193.594737,15.4993233 C193.15188,14.3527068 192.933083,13.2038346 192.933083,12.0542105 C192.933083,8.70007519 194.035338,6.09330827 196.244361,4.23917293 C198.363158,2.20909774 201.231579,1.19255639 204.854135,1.19255639 C208.297744,1.19255639 211.033835,2.11962406 213.067669,3.97451128 C215.096992,5.74218045 216.113534,8.17 216.113534,11.2594737 C216.113534,13.6444361 215.537594,15.7203759 214.390977,17.4865414 C213.067669,19.3391729 211.167669,21.0188722 208.695489,22.5196241 L215.318797,30.5993233 C215.848872,29.6286466 216.332331,28.5256391 216.77594,27.2880451 C217.03985,25.6121053 217.26015,24.1970677 217.437594,23.0489474 L222.206015,23.0489474 C223.617293,23.0489474 224.458647,23.4466917 224.724812,24.2421805 C224.988722,25.0361654 225.07594,25.788797 224.988722,26.4925564 C224.724812,27.7309023 224.369173,29.0557143 223.930075,30.4669925 C222.868421,32.8519549 221.632331,34.9707519 220.219549,36.8248872 L228.564662,46.8925564 L217.967669,46.8925564 L214.921053,43.0504511 C213.948872,43.9346617 212.978195,44.7293985 212.007519,45.4354135 C211.033835,46.1436842 210.020301,46.6278947 208.96015,46.8925564 C206.046617,47.5090977 202.999248,47.6872932 199.820301,47.4226316 C196.642105,47.1564662 193.947368,46.1436842 191.740602,44.3752632 C189.177444,41.9918045 187.898496,38.8128571 187.898496,34.8384211 C187.898496,31.9241353 188.606767,29.407594 190.019549,27.2880451 C191.518797,25.1677444 193.993233,23.1812782 197.436842,21.3271429 L197.436842,21.3271429 Z" id="Fill-47" fill="#FEFEFE"></path>
            </g>
        </g>
    </g>
</svg>