<?xml version="1.0" encoding="UTF-8"?>
<svg width="46px" height="31px" viewBox="0 0 46 31" version="1.1" xmlns="http://www.w3.org/2000/svg" xmlns:xlink="http://www.w3.org/1999/xlink">
    <title>96042D06-1D59-4930-B9CC-FA2BCDA59772</title>
    <g id="Page-1" stroke="none" stroke-width="1" fill="none" fill-rule="evenodd">
        <g id="hops-and-vines-homepage" transform="translate(-1283.000000, -106.000000)" fill="#000000" fill-rule="nonzero">
            <g id="icon/untappd-logo-icon" transform="translate(1283.000000, 106.000000)">
                <g id="Group" transform="translate(0.000000, 22.258065)">
                    <path d="M0.0271787297,4.88542825 L0.0271787297,0.186874305 C0.0271787297,0.146829811 0.0611521418,0.113459399 0.101920236,0.113459399 L1.51521418,0.113459399 C1.55598227,0.113459399 1.58995569,0.146829811 1.58995569,0.186874305 L1.58995569,4.7919911 C1.58995569,5.87986652 2.07237814,6.3003337 3.11196455,6.3003337 C4.1379616,6.3003337 4.60679468,5.87986652 4.60679468,4.7919911 L4.60679468,0.186874305 C4.60679468,0.146829811 4.64076809,0.113459399 4.68153619,0.113459399 L6.09483013,0.113459399 C6.13559823,0.113459399 6.16957164,0.146829811 6.16957164,0.186874305 L6.16957164,4.88542825 C6.16957164,6.77419355 4.83781388,7.68854283 3.11196455,7.68854283 C1.35893648,7.68186874 0.0271787297,6.77419355 0.0271787297,4.88542825 M7.31787297,0.0333704116 L11.9518464,4.31813126 L11.9450517,0.186874305 C11.9450517,0.146829811 11.9790251,0.113459399 12.0197932,0.113459399 L13.3311669,0.113459399 C13.371935,0.113459399 13.4059084,0.146829811 13.4059084,0.186874305 L13.4059084,7.60177976 C13.4059084,7.67519466 13.3175775,7.71523915 13.2564254,7.6618465 L8.62924668,3.38375973 L8.62924668,7.5083426 C8.62924668,7.5483871 8.59527326,7.58175751 8.55450517,7.58175751 L7.24313146,7.58175751 C7.20236337,7.58175751 7.16838996,7.5483871 7.16838996,7.5083426 L7.17518464,0.0934371524 C7.16838996,0.0200222469 7.25672083,-0.0200222469 7.31787297,0.0333704116 M16.4363368,1.46162403 L14.3435746,1.46162403 C14.3028065,1.46162403 14.2688331,1.42825362 14.2688331,1.38820912 L14.2688331,0.186874305 C14.2688331,0.146829811 14.3028065,0.113459399 14.3435746,0.113459399 L20.0850812,0.113459399 C20.1258493,0.113459399 20.1598227,0.146829811 20.1598227,0.186874305 L20.1598227,1.38820912 C20.1598227,1.42825362 20.1258493,1.46162403 20.0850812,1.46162403 L17.9923191,1.46162403 L17.9923191,7.5083426 C17.9923191,7.5483871 17.9583456,7.58175751 17.9175775,7.58175751 L16.5110783,7.58175751 C16.4703102,7.58175751 16.4363368,7.5483871 16.4363368,7.5083426 L16.4363368,1.46162403 Z M22.6738552,2.89655172 L21.6614476,5.45272525 L23.6590842,5.45272525 L22.6738552,2.89655172 Z M22.7553914,0.0734149055 L26.166322,7.48164627 C26.1867061,7.52836485 26.1527326,7.58843159 26.0983752,7.58843159 L24.6239291,7.58843159 C24.5899557,7.58843159 24.562777,7.56840934 24.5559823,7.54171301 L24.2162482,6.74082314 L21.1314623,6.74082314 L20.7917282,7.54171301 C20.7781388,7.56840934 20.7509601,7.58843159 20.7237814,7.58843159 L19.385229,7.58843159 C19.3308715,7.58843159 19.2901034,7.53503893 19.3172821,7.48164627 L22.5991137,0.0734149055 C22.6262925,0.00667408231 22.721418,0.00667408231 22.7553914,0.0734149055 L22.7553914,0.0734149055 Z M29.0064993,4.53170189 C30.2771049,4.53170189 30.8342688,4.02447164 30.8342688,3.00333704 C30.8342688,1.96885428 30.2567208,1.46162403 29.0064993,1.46162403 L28.5172821,1.46162403 L28.5172821,4.53170189 L29.0064993,4.53170189 Z M26.9545052,0.186874305 C26.9545052,0.146829811 26.9884786,0.113459399 27.0292467,0.113459399 L29.054062,0.113459399 C31.174003,0.113459399 32.4514032,1.20133482 32.4514032,3.00333704 C32.4514032,4.80533927 31.1672083,5.8865406 29.054062,5.8865406 L28.5172821,5.8865406 L28.5172821,7.51501669 C28.5172821,7.55506118 28.4833087,7.58843159 28.4425406,7.58843159 L27.0292467,7.58843159 C26.9884786,7.58843159 26.9545052,7.55506118 26.9545052,7.51501669 L26.9545052,0.186874305 Z M35.4274742,4.53170189 C36.6980798,4.53170189 37.2620384,4.02447164 37.2620384,3.00333704 C37.2620384,1.96885428 36.6776957,1.46162403 35.4274742,1.46162403 L34.938257,1.46162403 L34.938257,4.53170189 L35.4274742,4.53170189 Z M33.3754801,0.186874305 C33.3754801,0.146829811 33.4094535,0.113459399 33.4502216,0.113459399 L35.4750369,0.113459399 C37.5949778,0.113459399 38.8723781,1.20133482 38.8723781,3.00333704 C38.8723781,4.80533927 37.5881832,5.8865406 35.4750369,5.8865406 L34.938257,5.8865406 L34.938257,7.51501669 C34.938257,7.55506118 34.9042836,7.58843159 34.8635155,7.58843159 L33.4502216,7.58843159 C33.4094535,7.58843159 33.3754801,7.55506118 33.3754801,7.51501669 L33.3754801,0.186874305 Z M41.9163959,6.23359288 C43.6014771,6.23359288 44.3760709,5.2458287 44.3760709,3.85094549 C44.3760709,2.45606229 43.6082718,1.46829811 41.9163959,1.46829811 L41.2233383,1.46829811 L41.2233383,6.24026696 L41.9163959,6.24026696 L41.9163959,6.23359288 Z M39.6605613,0.186874305 C39.6605613,0.146829811 39.6945347,0.113459399 39.7353028,0.113459399 L41.9911374,0.113459399 C44.3285081,0.113459399 45.9864106,1.64182425 45.9864106,3.85094549 C45.9864106,6.06006674 44.3353028,7.58843159 41.9911374,7.58843159 L39.7353028,7.58843159 C39.6945347,7.58843159 39.6605613,7.55506118 39.6605613,7.51501669 L39.6605613,0.186874305 Z" id="Shape"></path>
                </g>
                <g id="Group" transform="translate(11.621053, 0.000000)">
                    <path d="M10.6644211,10.9005376 L5.04589474,18.7298387 C4.75621053,19.1330645 4.27115789,19.3413978 3.78610526,19.280914 C3.22694737,19.2137097 2.45894737,19.0053763 1.67073684,18.4341398 C0.875789474,17.8629032 0.437894737,17.2043011 0.188631579,16.7002688 C-0.0269473684,16.2567204 0.0202105263,15.7325269 0.303157895,15.3293011 L5.92168421,7.5 C6.19115789,7.13037634 6.54147368,6.82123656 6.94568421,6.6061828 L8.05052632,6.02150538 C8.27284211,5.90725806 8.46821053,5.74596774 8.63663158,5.56451613 C9.17557895,4.95967742 10.6105263,3.36693548 13.1705263,0.793010753 L13.2176842,0.591397849 C13.2311579,0.544354839 13.2648421,0.504032258 13.312,0.497311828 L13.4534737,0.463709677 C13.5141053,0.450268817 13.5545263,0.389784946 13.5477895,0.329301075 L13.5343158,0.154569892 C13.5275789,0.0806451613 13.5814737,0.0201612903 13.6555789,0.0201612903 C13.824,0.0134408602 14.1541053,0.0672043011 14.6189474,0.396505376 C15.0837895,0.732526882 15.2387368,1.02822581 15.2858947,1.18951613 C15.3061053,1.25672043 15.2656842,1.33064516 15.1915789,1.35080645 L15.0231579,1.39112903 C14.9625263,1.40456989 14.9221053,1.46505376 14.9221053,1.52553763 L14.9355789,1.6733871 C14.9423158,1.72043011 14.9153684,1.76747312 14.8749474,1.79435484 L14.6930526,1.90188172 C13.0762105,5.14112903 12.0252632,7.01612903 11.6210526,7.72177419 C11.4930526,7.93682796 11.4122105,8.17876344 11.3717895,8.42741935 L11.1764211,9.66397849 C11.1090526,10.094086 10.9338947,10.5241935 10.6644211,10.9005376 Z M22.9524211,15.3225806 L17.3338947,7.49327957 C17.0644211,7.12365591 16.7141053,6.81451613 16.3098947,6.59946237 L15.2050526,6.01478495 C14.9827368,5.90053763 14.7873684,5.73924731 14.6189474,5.5577957 C14.4842105,5.40994624 14.2955789,5.19489247 14.0530526,4.92607527 C14.0126316,4.88575269 13.9452632,4.89247312 13.9183158,4.94623656 C13.0694737,6.57930108 12.4901053,7.59408602 12.2341053,8.05107527 C12.1532632,8.19892473 12.0926316,8.35349462 12.0656842,8.51478495 C12.0117895,8.86424731 12.0117895,9.22715054 12.0656842,9.5766129 L12.0724211,9.63709677 C12.1465263,10.0873656 12.3216842,10.5174731 12.5911579,10.8938172 L18.2096842,18.7231183 C18.4926316,19.1196237 18.9709474,19.3346774 19.456,19.2741935 C20.0151579,19.2069892 20.7898947,18.9986559 21.5848421,18.4274194 C22.3797895,17.8561828 22.8176842,17.1975806 23.0669474,16.6935484 C23.2825263,16.25 23.2421053,15.7258065 22.9524211,15.3225806 M8.064,1.33736559 L8.23242105,1.37768817 C8.29305263,1.39112903 8.33347368,1.4516129 8.33347368,1.51209677 L8.32,1.65994624 C8.31326316,1.70698925 8.34021053,1.75403226 8.38063158,1.78091398 L8.56252632,1.88844086 C8.85894737,2.48655914 9.14189474,3.03763441 9.39789474,3.54166667 C9.42484211,3.58870968 9.48547368,3.60215054 9.52589474,3.56182796 C9.95031579,3.11155914 10.4555789,2.57392473 11.0551579,1.95564516 C11.1023158,1.90188172 11.1090526,1.82123656 11.0551579,1.77419355 C10.752,1.46505376 10.4353684,1.14247312 10.0850526,0.793010753 L10.0378947,0.591397849 C10.0311579,0.544354839 9.99073684,0.510752688 9.94357895,0.497311828 L9.80210526,0.463709677 C9.74147368,0.450268817 9.70105263,0.389784946 9.70778947,0.329301075 L9.72126316,0.154569892 C9.728,0.0806451613 9.67410526,0.0201612903 9.6,0.0201612903 C9.43157895,0.0134408602 9.10147368,0.060483871 8.62989474,0.396505376 C8.16505263,0.732526882 8.01010526,1.02822581 7.96294737,1.18951613 C7.94947368,1.25 7.99663158,1.32392473 8.064,1.33736559" id="Shape"></path>
                </g>
            </g>
        </g>
    </g>
</svg>