<?xml version="1.0" encoding="UTF-8"?>
<svg width="23px" height="30px" viewBox="0 0 23 30" version="1.1" xmlns="http://www.w3.org/2000/svg" xmlns:xlink="http://www.w3.org/1999/xlink">
    <title>1A1AAC28-C694-4C3C-84F2-0BEC5456EEC5</title>
    <g id="Page-1" stroke="none" stroke-width="1" fill="none" fill-rule="evenodd">
        <g id="hops-and-vines-homepage" transform="translate(-1353.000000, -106.000000)" fill="#000000" fill-rule="nonzero">
            <g id="icon/yelp-logo-icon" transform="translate(1353.000000, 106.000000)">
                <path d="M0.644,14 C0.184,14.7272727 4.16333634e-17,17.1818182 0.184,18.7272727 C0.276,19.2727273 0.368,19.7272727 0.46,19.9090909 C0.644,20.2727273 0.92,20.4545455 1.288,20.4545455 C1.472,20.4545455 1.656,20.4545455 5.98,19 C5.98,19 7.912,18.3636364 7.912,18.3636364 C8.372,18.2727273 8.74,17.8181818 8.74,17.1818182 C8.74,16.6363636 8.464,16.0909091 8.004,15.9090909 C8.004,15.9090909 6.624,15.3636364 6.624,15.3636364 C2.024,13.4545455 1.748,13.3636364 1.564,13.3636364 C1.196,13.4545455 0.828,13.6363636 0.644,14 Z" id="Path"></path>
                <path d="M11.04,28.4545455 C11.132,28.2727273 11.132,28.0909091 11.132,23.4545455 C11.132,23.4545455 11.132,21.4545455 11.132,21.3636364 C11.132,20.9090909 10.856,20.4545455 10.304,20.1818182 C9.752,20 9.2,20.0909091 8.832,20.5454545 C8.832,20.5454545 7.912,21.7272727 7.912,21.7272727 C4.692,25.5454545 4.508,25.7272727 4.416,26 C4.324,26.0909091 4.324,26.2727273 4.324,26.4545455 C4.324,26.6363636 4.416,26.8181818 4.6,27.0909091 C5.336,28 9.016,29.3636364 10.12,29.1818182 C10.58,29 10.856,28.7272727 11.04,28.4545455 Z" id="Path"></path>
                <path d="M18.4,26.8181818 C19.504,26.3636364 21.896,23.3636364 22.08,22.1818182 C22.172,21.7272727 21.988,21.4545455 21.712,21.1818182 C21.528,21 21.344,21 17.112,19.5454545 C17.112,19.5454545 15.18,18.9090909 15.18,18.9090909 C14.72,18.7272727 14.168,18.9090909 13.892,19.3636364 C13.524,19.8181818 13.432,20.3636364 13.8,20.8181818 L14.536,22.0909091 C17.112,26.2727273 17.296,26.6363636 17.48,26.7272727 C17.572,26.9090909 17.94,27 18.4,26.8181818 L18.4,26.8181818 Z" id="Path"></path>
                <path d="M16.1,16 C20.976,14.8181818 21.16,14.7272727 21.344,14.6363636 C21.62,14.4545455 21.804,14.0909091 21.804,13.7272727 C21.804,13.7272727 21.804,13.7272727 21.804,13.7272727 C21.712,12.5454545 19.596,9.36363636 18.492,8.81818182 C18.124,8.63636364 17.756,8.63636364 17.48,8.81818182 C17.296,8.90909091 17.112,9.09090909 14.536,12.7272727 C14.536,12.7272727 13.34,14.3636364 13.34,14.3636364 C13.064,14.7272727 13.064,15.2727273 13.34,15.7272727 C13.616,16.1818182 14.168,16.4545455 14.72,16.2727273 C14.72,16.2727273 14.72,16.2727273 14.72,16.2727273 C14.904,16.2727273 15.364,16.1818182 16.1,16 Z" id="Path"></path>
                <path d="M11.224,11.9090909 L11.224,11.9090909 C11.132,9.90909091 10.58,1.18181818 10.488,0.818181818 C10.396,0.454545455 10.12,0.181818182 9.66,0.0909090909 C8.372,-0.272727273 3.588,1.09090909 2.76,2 C2.484,2.27272727 2.392,2.72727273 2.392,3 C2.576,3.27272727 8.464,12.7272727 8.464,12.7272727 C9.384,14.1818182 10.028,13.9090909 10.304,13.9090909 C10.58,13.8181818 11.316,13.5454545 11.224,11.9090909 Z" id="Path"></path>
            </g>
        </g>
    </g>
</svg>